HIERARCHY
ROOT hip
{
  OFFSET 0 0 0
  CHANNELS 6 Xposition Yposition Zposition Zrotation Yrotation Xrotation
  JOINT abdomen
  {
    OFFSET 0 20.6881 -0.73152
    CHANNELS 3 Zrotation Xrotation Yrotation
    JOINT chest
    {
      OFFSET 0 11.7043 -0.48768
      CHANNELS 3 Zrotation Xrotation Yrotation
      JOINT neck
      {
        OFFSET 0 22.1894 -2.19456
        CHANNELS 3 Zrotation Xrotation Yrotation
        JOINT head
        {
          OFFSET -0.24384 7.07133 1.2192
          CHANNELS 3 Zrotation Xrotation Yrotation
          JOINT leftEye
          {
            OFFSET 4.14528 8.04674 8.04672
            CHANNELS 3 Zrotation Xrotation Yrotation
            End Site
            {
              OFFSET 1 0 0
            }
          }
          JOINT rightEye
          {
            OFFSET -3.6576 8.04674 8.04672
            CHANNELS 3 Zrotation Xrotation Yrotation
            End Site
            {
              OFFSET 1 0 0
            }
          }
        }
      }
      JOINT rCollar
      {
        OFFSET -2.68224 19.2634 -4.8768
        CHANNELS 3 Zrotation Xrotation Yrotation
        JOINT rShldr
        {
          OFFSET -8.77824 -1.95073 1.46304
          CHANNELS 3 Zrotation Xrotation Yrotation
          JOINT rForeArm
          {
            OFFSET -28.1742 -1.7115 0.48768
            CHANNELS 3 Zrotation Xrotation Yrotation
            JOINT rHand
            {
              OFFSET -22.5879 0.773209 7.07136
              CHANNELS 3 Zrotation Xrotation Yrotation
              JOINT rThumb1
              {
                OFFSET -1.2192 -0.487915 3.41376
                CHANNELS 3 Zrotation Xrotation Yrotation
                JOINT rThumb2
                {
                  OFFSET -3.37035 -0.52449 3.41376
                  CHANNELS 3 Zrotation Xrotation Yrotation
                  End Site
                  {
                    OFFSET -1.78271 -1.18214 1.43049
                  }
                }
              }
              JOINT rIndex1
              {
                OFFSET -7.75947 0.938293 5.60832
                CHANNELS 3 Zrotation Xrotation Yrotation
                JOINT rIndex2
                {
                  OFFSET -2.54057 -0.884171 1.56538
                  CHANNELS 3 Zrotation Xrotation Yrotation
                  End Site
                  {
                    OFFSET -1.62519 -0.234802 1.16502
                  }
                }
              }
              JOINT rMid1
              {
                OFFSET -8.24714 1.18213 3.41376
                CHANNELS 3 Zrotation Xrotation Yrotation
                JOINT rMid2
                {
                  OFFSET -3.10165 -0.590103 1.0647
                  CHANNELS 3 Zrotation Xrotation Yrotation
                  End Site
                  {
                    OFFSET -2.48547 -0.328903 0.83742
                  }
                }
              }
              JOINT rRing1
              {
                OFFSET -8.82822 0.546677 1.51678
                CHANNELS 3 Zrotation Xrotation Yrotation
                JOINT rRing2
                {
                  OFFSET -2.60934 -0.819778 -0.0198488
                  CHANNELS 3 Zrotation Xrotation Yrotation
                  End Site
                  {
                    OFFSET -2.33842 -0.294052 0.168128
                  }
                }
              }
              JOINT rPinky1
              {
                OFFSET -8.27202 -0.0477905 -0.4584
                CHANNELS 3 Zrotation Xrotation Yrotation
                JOINT rPinky2
                {
                  OFFSET -1.82734 -0.647385 -0.700984
                  CHANNELS 3 Zrotation Xrotation Yrotation
                  End Site
                  {
                    OFFSET -1.69225 -0.51767 -0.607171
                  }
                }
              }
            }
          }
        }
      }
      JOINT lCollar
      {
        OFFSET 2.68224 19.2634 -4.8768
        CHANNELS 3 Zrotation Xrotation Yrotation
        JOINT lShldr
        {
          OFFSET 8.77824 -1.95073 1.46304
          CHANNELS 3 Zrotation Xrotation Yrotation
          JOINT lForeArm
          {
            OFFSET 28.1742 -1.7115 0.48768
            CHANNELS 3 Zrotation Xrotation Yrotation
            JOINT lHand
            {
              OFFSET 22.5879 0.773209 7.07136
              CHANNELS 3 Zrotation Xrotation Yrotation
              JOINT lThumb1
              {
                OFFSET 1.2192 -0.487915 3.41376
                CHANNELS 3 Zrotation Xrotation Yrotation
                JOINT lThumb2
                {
                  OFFSET 3.37035 -0.52449 3.41376
                  CHANNELS 3 Zrotation Xrotation Yrotation
                  End Site
                  {
                    OFFSET 1.78271 -1.18214 1.43049
                  }
                }
              }
              JOINT lIndex1
              {
                OFFSET 7.75947 0.938293 5.60832
                CHANNELS 3 Zrotation Xrotation Yrotation
                JOINT lIndex2
                {
                  OFFSET 2.54057 -0.884171 1.56538
                  CHANNELS 3 Zrotation Xrotation Yrotation
                  End Site
                  {
                    OFFSET 1.62519 -0.234802 1.16502
                  }
                }
              }
              JOINT lMid1
              {
                OFFSET 8.24714 1.18213 3.41376
                CHANNELS 3 Zrotation Xrotation Yrotation
                JOINT lMid2
                {
                  OFFSET 3.10165 -0.590103 1.0647
                  CHANNELS 3 Zrotation Xrotation Yrotation
                  End Site
                  {
                    OFFSET 2.48547 -0.328903 0.83742
                  }
                }
              }
              JOINT lRing1
              {
                OFFSET 8.82822 0.546677 1.51678
                CHANNELS 3 Zrotation Xrotation Yrotation
                JOINT lRing2
                {
                  OFFSET 2.60934 -0.819778 -0.0198488
                  CHANNELS 3 Zrotation Xrotation Yrotation
                  End Site
                  {
                    OFFSET 2.33842 -0.294052 0.168128
                  }
                }
              }
              JOINT lPinky1
              {
                OFFSET 8.27202 -0.0477905 -0.4584
                CHANNELS 3 Zrotation Xrotation Yrotation
                JOINT lPinky2
                {
                  OFFSET 1.82734 -0.647385 -0.700984
                  CHANNELS 3 Zrotation Xrotation Yrotation
                  End Site
                  {
                    OFFSET 1.69225 -0.51767 -0.607171
                  }
                }
              }
            }
          }
        }
      }
    }
  }
  JOINT rButtock
  {
    OFFSET -8.77824 4.35084 1.2192
    CHANNELS 3 Zrotation Xrotation Yrotation
    JOINT rThigh
    {
      OFFSET 0 -1.70687 -2.19456
      CHANNELS 3 Zrotation Xrotation Yrotation
      JOINT rShin
      {
        OFFSET 0 -36.8199 0.73152
        CHANNELS 3 Zrotation Xrotation Yrotation
        JOINT rFoot
        {
          OFFSET 0.73152 -45.1104 -5.12064
          CHANNELS 3 Zrotation Xrotation Yrotation
          End Site
          {
            OFFSET -1.1221 -3.69964 12.103
          }
        }
      }
    }
  }
  JOINT lButtock
  {
    OFFSET 8.77824 4.35084 1.2192
    CHANNELS 3 Zrotation Xrotation Yrotation
    JOINT lThigh
    {
      OFFSET 0 -1.70687 -2.19456
      CHANNELS 3 Zrotation Xrotation Yrotation
      JOINT lShin
      {
        OFFSET 0 -36.8199 0.73152
        CHANNELS 3 Zrotation Xrotation Yrotation
        JOINT lFoot
        {
          OFFSET -0.73152 -45.1104 -5.12064
          CHANNELS 3 Zrotation Xrotation Yrotation
          End Site
          {
            OFFSET 1.1221 -3.69964 12.103
          }
        }
      }
    }
  }
}
MOTION
Frames:	4
Frame Time:	0.03333
-3.4856345688645707 31.92360408624967 33.60397450961263 9.663798332214355 27.582300186157227 7.836999416351318 -19.155195236206055 11.470999717712402 5.3372697830200195 5.52547025680542 -9.867430686950684 1.5767499208450317 -9.060850143432617 17.900897979736328 -12.69429874420166 12.255599975585938 -26.577898025512695 -22.358997344970703 -0.0 0.0 -0.0 -0.0 0.0 -0.0 2.5444436054650188e-14 -2.9261101462847716e-13 2.2263881547818914e-13 36.10569763183594 13.449599266052246 33.14419937133789 -15.33919906616211 -8.087329864501953 28.289600372314453 -0.4337690770626068 18.393400192260742 2.6786201000213623 -2.0006959977614258e-10 -1.8946817448295405e-09 3.261086123362844e-10 -3.4147704108811183e-10 -3.261594994086181e-09 5.644339440280532e-10 -2.0006959977614258e-10 -1.8946944013720213e-09 3.2609590028265245e-10 7.7309088706970215 5.474880218505859 0.41731396317481995 -2.0008232570756235e-10 -1.8946817448295405e-09 3.2610225630946843e-10 2.9055399894714355 0.9651829600334167 0.10290198773145676 -2.0006959977614258e-10 -1.89466908828706e-09 3.2609590028265245e-10 10.27859878540039 0.73180091381073 0.025912299752235413 -2.0008232570756235e-10 -1.89466908828706e-09 3.261086123362844e-10 2.2216696739196777 -0.7334870100021362 -0.2089199721813202 2.5444436054650188e-14 -2.9261101462847716e-13 2.2263881547818914e-13 -111.8849868774414 50.68419647216797 50.507694244384766 28.069997787475586 -40.028099060058594 -83.9719009399414 0.9530099630355835 -26.582700729370117 4.03262996673584 -1.8246204547267553e-10 -7.460181361551577e-10 -2.1601689881300956e-10 -3.2360233936934435e-10 -1.3196757020494942e-09 -3.680410420869862e-10 -1.824747714040953e-10 -7.460181361551577e-10 -2.160041728815898e-10 -7.7309088706970215 5.474880218505859 -0.41731396317481995 -1.8246204547267553e-10 -7.460181361551577e-10 -2.160041728815898e-10 -2.9055399894714355 0.9651829600334167 -0.10290198773145676 -1.824747714040953e-10 -7.460181361551577e-10 -2.1601689881300956e-10 -10.27859878540039 0.73180091381073 -0.025912299752235413 -1.8246204547267553e-10 -7.460181361551577e-10 -2.1602326871761335e-10 -2.2216696739196777 -0.7334870100021362 0.2089199721813202 -0.0 0.0 -0.0 -61.03489303588867 -55.8640022277832 -52.19199752807617 -1.8138601779937744 68.1552963256836 2.230419874191284 1.6123896837234497 0.6088579893112183 15.378999710083008 -0.0 0.0 -0.0 11.804900169372559 7.276439189910889 4.080669403076172 -0.07900852710008621 36.31800079345703 -2.712090253829956 7.941638946533203 -16.899898529052734 32.05079650878906
-3.491106315784484 31.86418827065973 33.684188598070804 9.724900245666504 27.527999877929688 7.822899341583252 -19.23710060119629 11.445699691772461 5.428119659423828 5.528289794921875 -9.853538513183594 1.6003798246383667 -9.062479972839355 17.9385986328125 -12.677899360656738 12.19169807434082 -26.669099807739258 -22.340200424194336 -0.0 0.0 -0.0 -0.0 0.0 -0.0 8.905552619127566e-14 -1.6538883435522622e-13 2.480832379803122e-13 35.99009704589844 13.583999633789062 33.274803161621094 -15.260997772216797 -8.018229484558105 28.127498626708984 -0.43226203322410583 18.3627986907959 2.6738498210906982 -1.389393378126158e-09 1.316151632124729e-09 -1.3271818088966825e-09 -2.4191932901374003e-09 2.115730257656878e-09 -2.2738229077390315e-09 -1.389393378126158e-09 1.316113440452682e-09 -1.3271818088966825e-09 7.7309088706970215 5.474880218505859 0.41731396317481995 -1.389393378126158e-09 1.3161262080174652e-09 -1.3271690413318993e-09 2.9055399894714355 0.9651829600334167 0.10290198773145676 -1.3893807215836773e-09 1.316151632124729e-09 -1.3271818088966825e-09 10.27859878540039 0.73180091381073 0.025912299752235413 -1.389393378126158e-09 1.316151632124729e-09 -1.3271690413318993e-09 2.2216696739196777 -0.7334870100021362 -0.2089199721813202 8.905552619127566e-14 -1.6538883435522622e-13 2.480832379803122e-13 -111.9169921875 50.643096923828125 50.54099655151367 28.06749725341797 -40.042503356933594 -83.99789428710938 0.9649048447608948 -26.733198165893555 4.059169769287109 -8.061051826047105e-10 -8.789653449525758e-10 -9.323986027709452e-10 -1.3806786824943629e-09 -1.4710064277778656e-09 -1.6235076616410993e-09 -8.061178946583425e-10 -8.789653449525758e-10 -9.323859462284645e-10 -7.7309088706970215 5.474880218505859 -0.41731396317481995 -8.061051826047105e-10 -8.789653449525758e-10 -9.323922744997049e-10 -2.9055399894714355 0.9651829600334167 -0.10290198773145676 -8.061178946583425e-10 -8.789653449525758e-10 -9.323922744997049e-10 -10.27859878540039 0.73180091381073 -0.025912299752235413 -8.061051826047105e-10 -8.789525773877926e-10 -9.32405042064488e-10 -2.2216696739196777 -0.7334870100021362 0.2089199721813202 -0.0 0.0 -0.0 -61.29570007324219 -55.939090728759766 -52.42479705810547 -1.8597099781036377 68.49250030517578 2.266389846801758 1.6736997365951538 0.4096309542655945 15.465699195861816 -0.0 0.0 -0.0 11.825400352478027 7.460519790649414 4.127750396728516 -0.08150804042816162 36.2744026184082 -2.7215301990509033 7.94909143447876 -16.9153995513916 32.075401306152344
-3.495139938526957 31.804830511677736 33.75810015615277 9.801899909973145 27.47979736328125 7.815299034118652 -19.309898376464844 11.431999206542969 5.485339641571045 5.525849342346191 -9.850759506225586 1.614149808883667 -9.06735897064209 17.9695987701416 -12.664499282836914 12.148597717285156 -26.71489906311035 -22.322601318359375 -0.0 0.0 -0.0 -0.0 0.0 -0.0 7.633330816395056e-14 -7.633330816395056e-14 9.54166352049382e-14 35.97159957885742 13.627799987792969 33.37019729614258 -15.182799339294434 -7.949529647827148 27.9656982421875 -0.4344000816345215 18.406497955322266 2.6806697845458984 -8.083188562935106e-10 1.639041569134747e-09 -9.619713914332806e-10 -1.41019429467093e-09 2.731752823947886e-09 -1.6513502787418588e-09 -8.083188562935106e-10 1.6390160340051807e-09 -9.619778307268234e-10 7.7309088706970215 5.474880218505859 0.41731396317481995 -8.083188562935106e-10 1.6390160340051807e-09 -9.619650631620402e-10 2.9055399894714355 0.9651829600334167 0.10290198773145676 -8.083188562935106e-10 1.639041569134747e-09 -9.619713914332806e-10 10.27859878540039 0.73180091381073 0.025912299752235413 -8.083188562935106e-10 1.639041569134747e-09 -9.619650631620402e-10 2.2216696739196777 -0.7334870100021362 -0.2089199721813202 7.633330816395056e-14 -7.633330816395056e-14 9.54166352049382e-14 -111.95699310302734 50.61670684814453 50.56779861450195 28.064697265625 -40.05900192260742 -84.02739715576172 0.9708516597747803 -26.80769920349121 4.072349548339844 -5.174889405878957e-10 -5.957814797064032e-10 -5.391421753486725e-10 -8.862933165154629e-10 -9.973201153812283e-10 -9.407189471843935e-10 -5.174889405878957e-10 -5.957814797064032e-10 -5.391294077838893e-10 -7.7309088706970215 5.474880218505859 -0.41731396317481995 -5.174889405878957e-10 -5.957814797064032e-10 -5.391421753486725e-10 -2.9055399894714355 0.9651829600334167 -0.10290198773145676 -5.175016526415277e-10 -5.957814797064032e-10 -5.391421753486725e-10 -10.27859878540039 0.73180091381073 -0.025912299752235413 -5.174889405878957e-10 -5.957814797064032e-10 -5.391485036199128e-10 -2.2216696739196777 -0.7334870100021362 0.2089199721813202 -0.0 0.0 -0.0 -61.59159469604492 -55.980499267578125 -52.66419982910156 -1.9059900045394897 68.82229614257812 2.303040027618408 1.7390599250793457 0.19641798734664917 15.5364990234375 -0.0 0.0 -0.0 11.830599784851074 7.595109939575195 4.1176300048828125 -0.0832778736948967 36.272300720214844 -2.7318999767303467 7.97760009765625 -16.962299346923828 32.11399459838867
-3.496715572475873 31.74438333752312 33.82800100580977 9.894099235534668 27.502300262451172 7.827300071716309 -19.37369728088379 11.430098533630371 5.508949279785156 5.518160343170166 -9.859090805053711 1.6180700063705444 -9.075458526611328 17.993999481201172 -12.65379810333252 12.126096725463867 -26.715402603149414 -22.306299209594727 -0.0 0.0 -0.0 -0.0 0.0 -0.0 -2.5444436054650188e-14 -1.2722218027325094e-14 -2.289999244918517e-13 36.05080032348633 13.581399917602539 33.43009948730469 -15.104598999023438 -7.881240367889404 27.804197311401367 -0.4402400553226471 18.52440071105957 2.6991097927093506 1.5431413924460458e-09 -9.259993882793083e-10 1.4217206301125884e-09 2.68550759408015e-09 -1.413552941365026e-09 2.4318329572281527e-09 1.543154160010829e-09 -9.259611966072612e-10 1.4217078625478052e-09 7.7309088706970215 5.474880218505859 0.41731396317481995 1.543128735903565e-09 -9.259866207145251e-10 1.4217206301125884e-09 2.9055399894714355 0.9651829600334167 0.10290198773145676 1.5431413924460458e-09 -9.259993882793083e-10 1.4217206301125884e-09 10.27859878540039 0.73180091381073 0.025912299752235413 1.543128735903565e-09 -9.259993882793083e-10 1.4217206301125884e-09 2.2216696739196777 -0.7334870100021362 -0.2089199721813202 -2.5444436054650188e-14 -1.2722218027325094e-14 -2.289999244918517e-13 -112.00698852539062 50.60490036010742 50.58819580078125 28.061399459838867 -40.07740020751953 -84.06049346923828 0.9707348346710205 -26.806299209594727 4.072099208831787 6.833866805777689e-10 1.0353341101110303e-10 9.63758850502927e-10 1.1595793214524974e-09 1.0140879802555958e-10 1.680350525390395e-09 6.833739685241369e-10 1.0352068507968326e-10 9.63758850502927e-10 -7.7309088706970215 5.474880218505859 -0.41731396317481995 6.833866805777689e-10 1.0352068507968326e-10 9.637525222316867e-10 -2.9055399894714355 0.9651829600334167 -0.10290198773145676 6.833866805777689e-10 1.0353341101110303e-10 9.637461939604464e-10 -10.27859878540039 0.73180091381073 -0.025912299752235413 6.833866805777689e-10 1.0353341101110303e-10 9.63739865689206e-10 -2.2216696739196777 -0.7334870100021362 0.2089199721813202 -0.0 0.0 -0.0 -61.921897888183594 -55.98809051513672 -52.909690856933594 -1.9526997804641724 69.1447982788086 2.340359926223755 1.8083298206329346 -0.030815396457910538 15.591499328613281 -0.0 0.0 -0.0 11.82089900970459 7.680229663848877 4.050230026245117 -0.08429083973169327 36.31169891357422 -2.743239641189575 8.027292251586914 -17.040597915649414 32.16689682006836
